<svg xmlns="http://www.w3.org/2000/svg" viewBox="0 0 240 240"><polygon points="0 26.67 13.33 26.67 13.33 40 0 40 0 66.67 13.33 66.67 13.33 106.67 106.67 106.67 106.67 80 40 80 40 66.67 106.67 66.67 106.67 40 40 40 40 26.67 106.67 26.67 106.67 0 0 0 0 26.67"/><rect x="40" y="133.33" width="66.67" height="26.67"/><polygon points="26.67 133.33 0 133.33 0 200 26.67 200 80 200 80 213.33 0 213.33 0 240 106.67 240 106.67 173.33 26.67 173.33 26.67 133.33"/><polygon points="133.33 160 173.33 160 173.33 240 200 240 200 133.33 133.33 133.33 133.33 160"/><rect x="133.33" y="173.33" width="26.67" height="66.67"/><rect x="213.33" y="173.33" width="26.67" height="66.67"/><rect x="206.67" y="133.33" width="13.33" height="13.33"/><rect x="226.67" y="133.33" width="13.33" height="13.33"/><rect x="133.33" width="26.67" height="106.67"/><rect x="206.67" width="13.33" height="13.33"/><rect x="226.67" width="13.33" height="13.33"/><path d="M200,0H173.33V26.67h40V40h-40v66.67H240V20H200Zm13.33,80H200V66.67h13.33Z"/></svg>